<svg width="1920" height="1080" viewBox="0 0 1920 1080" fill="none"
    xmlns="http://www.w3.org/2000/svg">
    <g clip-path="url(#clip0_2923_39)">
        <rect width="1920" height="1080" fill="white" />
        <rect x="1168" width="752" height="1080" fill="#328BFF" />

        <path
            d="M856.742 261.521C950.802 21.5731 686.772 -238.805 543 -339H1142.19V1080H1039.08C1106.48 929.056 1064.15 843.5 955.888 817.779C592.034 731.331 739.167 561.457 856.742 261.521Z"
            fill="#1A67CA" />
        <path
            d="M908.053 266.703C993.652 -2.64444 759.783 -238.805 616.011 -339H1215.2V1080H1112.09C1179.49 929.056 1093.73 802.903 976.658 769.922C616.389 668.426 810.301 574.292 908.053 266.703Z"
            fill="#328BFF" />


        <path
            d="M1060.74 161.753C1010.72 160.285 981.208 148.905 984.209 115.865C986.043 105.953 996.113 87.2313 1021.72 91.6366C1024.39 78.7879 1039.83 54.2654 1080.24 58.9643C1087.32 53.8624 1110.46 47.3183 1146.38 61.9574C1213.38 43.5896 1257.22 80.6169 1270.82 101.548C1323.63 116.526 1284.49 146.457 1258.31 159.551C1197.89 180.99 1101.42 169.952 1060.74 161.753Z"
            fill="white">
            <animate
                attributeName="d"
                values="
        M1060.74 161.753C1010.72 160.285 981.208 148.905 984.209 115.865C986.043 105.953 996.113 87.2313 1021.72 91.6366C1024.39 78.7879 1039.83 54.2654 1080.24 58.9643C1087.32 53.8624 1110.46 47.3183 1146.38 61.9574C1213.38 43.5896 1257.22 80.6169 1270.82 101.548C1323.63 116.526 1284.49 146.457 1258.31 159.551C1197.89 180.99 1101.42 169.952 1060.74 161.753Z;
        M1065.74 171.753C1015.72 170.285 986.208 158.905 989.209 125.865C991.043 115.953 1001.113 97.2313 1026.72 101.6366C1029.39 88.7879 1044.83 64.2654 1085.24 68.9643C1092.32 63.8624 1115.46 57.3183 1151.38 71.9574C1218.38 53.5896 1262.22 90.6169 1275.82 111.548C1328.63 126.526 1289.49 156.457 1263.31 169.551C1202.89 190.99 1106.42 179.952 1065.74 171.753Z;
        M1060.74 161.753C1010.72 160.285 981.208 148.905 984.209 115.865C986.043 105.953 996.113 87.2313 1021.72 91.6366C1024.39 78.7879 1039.83 54.2654 1080.24 58.9643C1087.32 53.8624 1110.46 47.3183 1146.38 61.9574C1213.38 43.5896 1257.22 80.6169 1270.82 101.548C1323.63 116.526 1284.49 146.457 1258.31 159.551C1197.89 180.99 1101.42 169.952 1060.74 161.753Z
        "
                dur="3s"
                keyTimes="0;0.5;1"
                repeatCount="indefinite" />
        </path>


        <path
            d="M1757.74 208.528C1707.72 207.171 1678.21 196.651 1681.21 166.111C1683.04 156.949 1693.11 139.642 1718.72 143.715C1721.39 131.838 1736.83 109.17 1777.24 113.513C1784.32 108.797 1807.46 102.748 1843.38 116.28C1910.38 99.3013 1954.22 133.528 1967.82 152.876C2020.63 166.722 1981.49 194.389 1955.31 206.492C1894.89 226.31 1798.42 216.107 1757.74 208.528Z"
            fill="white">
            <animate
                attributeName="d"
                values="
        M1757.74 208.528C1707.72 207.171 1678.21 196.651 1681.21 166.111C1683.04 156.949 1693.11 139.642 1718.72 143.715C1721.39 131.838 1736.83 109.17 1777.24 113.513C1784.32 108.797 1807.46 102.748 1843.38 116.28C1910.38 99.3013 1954.22 133.528 1967.82 152.876C2020.63 166.722 1981.49 194.389 1955.31 206.492C1894.89 226.31 1798.42 216.107 1757.74 208.528Z;
        M1767.74 218.528C1717.72 217.171 1688.21 206.651 1691.21 176.111C1693.04 166.949 1703.11 149.642 1728.72 153.715C1731.39 141.838 1746.83 119.17 1787.24 123.513C1794.32 118.797 1807.46 112.748 1843.38 126.28C1910.38 109.3013 1954.22 143.528 1967.82 162.876C2020.63 176.722 1981.49 204.389 1955.31 216.492C1894.89 236.31 1798.42 226.107 1767.74 218.528Z;
        M1757.74 208.528C1707.72 207.171 1678.21 196.651 1681.21 166.111C1683.04 156.949 1693.11 139.642 1718.72 143.715C1721.39 131.838 1736.83 109.17 1777.24 113.513C1784.32 108.797 1807.46 102.748 1843.38 116.28C1910.38 99.3013 1954.22 133.528 1967.82 152.876C2020.63 166.722 1981.49 194.389 1955.31 206.492C1894.89 226.31 1798.42 216.107 1757.74 208.528Z
        "
                dur="8s"
                keyTimes="0;0.5;1"
                repeatCount="indefinite" />
        </path>


        <rect x="1289" y="751" width="82.5" height="238.018" fill="#1A67CA" />
        <rect x="1371.5" y="796.389" width="82.5" height="192.629" fill="#1A67CA" />
        <rect x="1306.93" y="768.713" width="16.7181" height="23.1426" fill="#328BFF" />
        <rect x="1306.93" y="813.345" width="16.7181" height="23.1426" fill="#328BFF" />
        <rect x="1306.93" y="857.978" width="16.7181" height="23.1426" fill="#328BFF" />
        <rect x="1306.93" y="902.423" width="16.7181" height="23.1426" fill="#328BFF" />
        <rect x="1306.93" y="947.056" width="16.7181" height="23.1426" fill="#328BFF" />
        <rect x="1339.22" y="768.713" width="16.7181" height="23.1426" fill="#328BFF" />
        <rect x="1339.22" y="813.345" width="16.7181" height="23.1426" fill="#328BFF" />
        <rect x="1339.22" y="857.978" width="16.7181" height="23.1426" fill="#328BFF" />
        <rect x="1339.22" y="902.423" width="16.7181" height="23.1426" fill="#328BFF" />
        <rect x="1339.22" y="947.056" width="16.7181" height="23.1426" fill="#328BFF" />
        <rect x="1387.04" y="818.531" width="16.7181" height="22.3775" fill="#328BFF" />
        <rect x="1387.04" y="861.687" width="16.7181" height="22.3775" fill="#328BFF" />
        <rect x="1387.04" y="904.844" width="16.7181" height="22.3775" fill="#328BFF" />
        <rect x="1387.04" y="947.821" width="16.7181" height="22.3775" fill="#328BFF" />
        <rect x="1419.33" y="818.531" width="16.7181" height="22.3775" fill="#328BFF" />
        <rect x="1419.33" y="861.687" width="16.7181" height="22.3775" fill="#328BFF" />
        <rect x="1419.33" y="904.844" width="16.7181" height="22.3775" fill="#328BFF" />
        <rect x="1419.33" y="947.821" width="16.7181" height="22.3775" fill="#328BFF" />
        <path
            d="M1716 856.905C1716 845.859 1724.95 836.905 1736 836.905H1768.49V985.711H1716V856.905Z"
            fill="#1A67CA" />
        <path
            d="M1820.98 836.905H1853.46C1864.51 836.905 1873.46 845.859 1873.46 856.905V985.711H1820.98V836.905Z"
            fill="#1A67CA" />
        <path
            d="M1768.49 835C1768.49 829.477 1772.97 825 1778.49 825H1810.98C1816.5 825 1820.98 829.477 1820.98 835V973.806H1768.49V835Z"
            fill="#1A67CA" />
        <rect x="1731.69" y="855.302" width="21.1034" height="22.7267" fill="#328BFF" />
        <rect x="1731.69" y="899.132" width="21.1034" height="22.7267" fill="#328BFF" />
        <rect x="1731.69" y="942.963" width="21.1034" height="22.7267" fill="#328BFF" />
        <rect x="1784.18" y="843.939" width="21.1034" height="22.7267" fill="#328BFF" />
        <rect x="1784.18" y="887.77" width="21.1034" height="22.7267" fill="#328BFF" />
        <rect x="1784.18" y="931.599" width="21.1034" height="22.7267" fill="#328BFF" />
        <rect x="1836.67" y="855.302" width="21.1034" height="22.7267" fill="#328BFF" />
        <rect x="1836.67" y="899.132" width="21.1034" height="22.7267" fill="#328BFF" />
        <rect x="1836.67" y="942.963" width="21.1034" height="22.7267" fill="#328BFF" />
        <rect x="994" y="363" width="153" height="153" rx="10" fill="#1A67CA" />
        <rect x="1002" y="369" width="136" height="85" rx="20" fill="#328BFF" />
        <rect x="1483" y="397" width="153" height="153" rx="10" fill="#1A67CA" />
        <rect x="1491" y="403" width="136" height="85" rx="20" fill="#328BFF" />
        <rect x="916" y="629" width="96.4453" height="66.2141" rx="10" fill="#1A67CA" />
        <path d="M992.133 713.198L976.218 690.514L1008.05 690.514L992.133 713.198Z" fill="#1A67CA" />
        <rect x="929.877" y="641.262" width="69.3851" height="8.99204" fill="#328BFF" />
        <rect x="929.877" y="657.611" width="69.3851" height="8.99204" fill="#328BFF" />
        <rect x="929.877" y="673.96" width="69.3851" height="8.99204" fill="#328BFF" />
        <circle cx="1661.97" cy="301.672" r="46.1575" fill="#FDCCA7" />
        <path d="M1642.17 327L1639.36 332.445L1634 332.445" stroke="#545352" stroke-linecap="round" />
        <path
            d="M1611.71 250.386C1625.66 273.362 1610 267.5 1615.5 298C1626.78 249.791 1643.5 281.158 1670.17 275.003C1691.51 270.08 1705.05 290.047 1709.15 300.646L1712.23 287.312L1699.92 260.643V270.9L1686.58 243.206L1690.69 255.514L1674.28 239.103V248.334L1654.79 235L1659.92 243.206L1632.22 235L1645.56 239.103H1621.96L1628.12 243.206L1611.71 250.386Z"
            fill="#545352" stroke="#545352" stroke-linecap="round" />
        <line x1="1636.61" y1="307.447" x2="1632.65" y2="317.714" stroke="#545352"
            stroke-linecap="round" />
        <circle cx="1650.68" cy="304.749" r="4.10289" fill="#545352" />
        <circle cx="1628.12" cy="304.749" r="4.10289" fill="#545352" />
        <path
            d="M1677.35 290.177C1685.56 287.1 1702.38 285.664 1704.02 304.537C1705.66 323.41 1686.93 323.342 1677.35 320.948"
            stroke="#545352" stroke-linecap="round" />
        <path d="M1694.79 297.569C1690.35 296.201 1681.25 297.159 1680.43 311.929" stroke="#545352"
            stroke-linecap="round" />
        <path
            d="M1578.88 554H1761.46C1764.2 488.354 1749.15 356.446 1667.1 353.984C1585.04 351.522 1574.1 486.302 1578.88 554Z"
            fill="#294174" stroke="#294174" stroke-linecap="round" />

        <path
            d="M1754.17 842.118C1755.75 832.742 1749.92 816.424 1746.81 809.437L1700.47 819.873C1672.38 826.201 1667.33 850.23 1668.32 861.453C1686.59 860.62 1733.17 848.216 1754.17 842.118Z"
            fill="#1E1E1E" stroke="#1E1E1E" stroke-width="3" />
        <path
            d="M1751.87 813C1729.47 743 1742.53 607.667 1751.87 550H1594.87L1587.87 573C1566.67 615.4 1572.7 761.333 1578.37 829H1637.87C1637.07 680.2 1668.53 596.333 1684.37 573C1660.77 617.4 1671.2 760.5 1679.37 826.5L1751.87 813Z"
            fill="#294174" stroke="#294174" stroke-width="3" />
        <circle cx="46.1575" cy="46.1575" r="46.1575" transform="matrix(-1 0 0 1 1250.95 255.515)"
            fill="#FDCCA7" />
        <line x1="1231.04" y1="307.173" x2="1234.37" y2="321.399" stroke="#545352"
            stroke-linecap="round" />
        <path d="M1221.65 327L1224.46 332.445L1229.82 332.445" stroke="#545352"
            stroke-linecap="round" />

        <circle cx="4.10289" cy="4.10289" r="4.10289" transform="matrix(-1 0 0 1 1220.18 300.646)"
            fill="#545352" />
        <circle cx="4.10289" cy="4.10289" r="4.10289" transform="matrix(-1 0 0 1 1242.74 300.646)"
            fill="#545352" />
        <path
            d="M1189.41 290.177C1181.2 287.1 1164.38 285.664 1162.74 304.538C1161.1 323.411 1179.83 323.342 1189.41 320.949"
            stroke="#545352" stroke-linecap="round" />
        <path d="M1171.97 297.569C1176.41 296.202 1185.51 297.159 1186.33 311.93" stroke="#545352"
            stroke-linecap="round" />
        <path
            d="M1287.87 554H1105.3C1102.56 488.354 1117.6 356.446 1199.66 353.984C1281.72 351.523 1292.66 486.303 1287.87 554Z"
            fill="#294174" stroke="#294174" stroke-linecap="round" />


        <!-- 右：左手 -->
        <circle cx="1434.26" cy="472.968" r="29.746" fill="#FDCCA7">
            <animate
                attributeName="cy"
                values="472.968;482.968;472.968"
                dur="2s"
                keyTimes="0;0.5;1"
                repeatCount="indefinite" />
        </circle>
        <!-- 右：左腕 -->
        <path
            d="M1598.37 478.096C1654.99 476.455 1665.04 437.067 1662.99 417.579L1718.38 458.608C1706.76 486.986 1659.92 542.717 1565.55 538.614C1532.73 536.562 1462.36 525.485 1443.49 497.585L1462.98 472.968C1498.26 481.173 1567.94 479.806 1598.37 478.096Z"
            fill="#FDCCA7" stroke="#FDCCA7" stroke-linecap="round">
            <animate
                attributeName="d"
                values="
                M1598.37 478.096C1654.99 476.455 1665.04 437.067 1662.99 417.579L1718.38 458.608C1706.76 486.986 1659.92 542.717 1565.55 538.614C1532.73 536.562 1462.36 525.485 1443.49 497.585L1462.98 472.968C1498.26 481.173 1567.94 479.806 1598.37 478.096;
                M1598.37 488.096C1654.99 486.455 1665.04 447.067 1662.99 427.579L1718.38 468.608C1706.76 496.986 1659.92 552.717 1565.55 548.614C1532.73 546.562 1462.36 535.485 1443.49 507.585L1462.98 482.968C1498.26 491.173 1567.94 489.806 1598.37 488.096; 
                M1598.37 478.096C1654.99 476.455 1665.04 437.067 1662.99 417.579L1718.38 458.608C1706.76 486.986 1659.92 542.717 1565.55 538.614C1532.73 536.562 1462.36 525.485 1443.49 497.585L1462.98 472.968C1498.26 481.173 1567.94 479.806 1598.37 478.096"
                dur="2s"
                keyTimes="0;0.5;1"
                repeatCount="indefinite" />
        </path>

        <!-- 右：左シャツ -->
        <path
            d="M1451.69 507.842C1452.51 510.304 1465.37 519.467 1472.21 522.202L1487.59 476.045L1469.13 472.968C1469.13 480.353 1457.51 499.295 1451.69 507.842Z"
            fill="white" stroke="white" stroke-linecap="round">
            <animate
                attributeName="d"
                values="
                M1451.69 507.842C1452.51 510.304 1465.37 519.467 1472.21 522.202L1487.59 476.045L1469.13 472.968C1469.13 480.353 1457.51 499.295 1451.69 507.842; 
                 M1451.69 517.842C1452.51 520.304 1465.37 529.467 1472.21 532.202L1487.59 486.045L1469.13 482.968C1469.13 490.353 1457.51 509.295 1451.69 517.842; 
                M1451.69 507.842C1452.51 510.304 1465.37 519.467 1472.21 522.202L1487.59 476.045L1469.13 472.968C1469.13 480.353 1457.51 499.295 1451.69 507.842
                "
                dur="2s"
                keyTimes="0;0.5;1"
                repeatCount="indefinite" />
        </path>

        <!-- 右：左袖 -->
        <path
            d="M1599.4 476.045C1656.02 474.404 1664.02 435.016 1661.97 415.527L1719.41 458.608C1707.78 486.986 1660.94 542.717 1566.58 538.614C1533.75 536.563 1492.11 553.179 1473.23 525.28L1489.65 472.968C1524.93 481.174 1568.97 477.755 1599.4 476.045Z"
            fill="#294174" stroke="#294174" stroke-linecap="round">
            <animate
                attributeName="d"
                values="
                M1599.4 476.045C1656.02 474.404 1664.02 435.016 1661.97 415.527L1719.41 458.608C1707.78 486.986 1660.94 542.717 1566.58 538.614C1533.75 536.563 1492.11 553.179 1473.23 525.28L1489.65 472.968C1524.93 481.174 1568.97 477.755 1599.4 476.045; 
                M1599.4 486.045C1656.02 484.404 1664.02 445.016 1661.97 425.527L1719.41 468.608C1707.78 496.986 1660.94 552.717 1566.58 548.614C1533.75 546.563 1492.11 563.179 1473.23 535.28L1489.65 482.968C1524.93 491.174 1568.97 487.755 1599.4 486.045; 
                M1599.4 476.045C1656.02 474.404 1664.02 435.016 1661.97 415.527L1719.41 458.608C1707.78 486.986 1660.94 542.717 1566.58 538.614C1533.75 536.563 1492.11 553.179 1473.23 525.28L1489.65 472.968C1524.93 481.174 1568.97 477.755 1599.4 476.045
                "
                dur="2s"
                keyTimes="0;0.5;1"
                repeatCount="indefinite" />
        </path>


        <!-- 左：右手 -->
        <circle cx="29.746" cy="29.746" r="29.746" transform="matrix(-1 0 0 1 1462.25 443.222)"
            fill="#FDCCA7">
            <animate
                attributeName="cy"
                values="
                29.746;
                39.746;
                29.746"
                dur="2s"
                keyTimes="0;0.5;1"
                repeatCount="indefinite" />
        </circle>
        <!-- 左：右腕 -->
        <path
            d="M1268.39 478.097C1211.77 476.456 1201.71 437.068 1203.77 417.579L1148.38 458.608C1160 486.986 1206.84 542.717 1301.21 538.614C1334.03 536.563 1404.4 525.485 1423.27 497.585L1403.78 472.968C1368.5 481.174 1298.82 479.806 1268.39 478.097Z"
            fill="#FDCCA7" stroke="#FDCCA7" stroke-linecap="round"
        >
            <animate
                attributeName="d"
                values="
                M1268.39 478.097C1211.77 476.456 1201.71 437.068 1203.77 417.579L1148.38 458.608C1160 486.986 1206.84 542.717 1301.21 538.614C1334.03 536.563 1404.4 525.485 1423.27 497.585L1403.78 472.968C1368.5 481.174 1298.82 479.806 1268.39 478.097Z;
                M1268.39 488.097C1211.77 486.456 1201.71 447.068 1203.77 427.579L1148.38 468.608C1160 496.986 1206.84 552.717 1301.21 548.614C1334.03 546.563 1404.4 535.485 1423.27 507.585L1403.78 482.968C1368.5 491.174 1298.82 489.806 1268.39 488.097Z;
                M1268.39 478.097C1211.77 476.456 1201.71 437.068 1203.77 417.579L1148.38 458.608C1160 486.986 1206.84 542.717 1301.21 538.614C1334.03 536.563 1404.4 525.485 1423.27 497.585L1403.78 472.968C1368.5 481.174 1298.82 479.806 1268.39 478.097Z
                "
                dur="2s"
                keyTimes="0;0.5;1"
                repeatCount="indefinite" />
        </path>
        <!-- 左：右シャツ -->
        <path
            d="M1415.06 507.842C1414.24 510.304 1401.39 519.467 1394.55 522.202L1379.16 476.045L1397.63 472.968C1397.63 480.353 1409.25 499.295 1415.06 507.842Z"
            fill="white" stroke="white" stroke-linecap="round">
            <animate
                attributeName="d"
                values="
                M1415.06 507.842C1414.24 510.304 1401.39 519.467 1394.55 522.202L1379.16 476.045L1397.63 472.968C1397.63 480.353 1409.25 499.295 1415.06 507.842Z;
                M1415.06 517.842C1414.24 520.304 1401.39 529.467 1394.55 532.202L1379.16 486.045L1397.63 482.968C1397.63 490.353 1409.25 509.295 1415.06 517.842Z;
                M1415.06 507.842C1414.24 510.304 1401.39 519.467 1394.55 522.202L1379.16 476.045L1397.63 472.968C1397.63 480.353 1409.25 499.295 1415.06 507.842Z
                "
                dur="2s"
                keyTime="0;0.5;1"
                repeatCount="indefinite" />
        </path>

        <!-- 左：右袖 -->
        <path
            d="M1267.36 476.045C1210.74 474.404 1202.74 435.016 1204.79 415.527L1147.35 458.608C1158.98 486.986 1205.82 542.717 1300.18 538.614C1333.01 536.563 1374.65 553.179 1393.52 525.28L1377.11 472.968C1341.83 481.174 1297.79 477.755 1267.36 476.045Z"
            fill="#294174" stroke="#294174" stroke-linecap="round">
            <animate
                attributeName="d"
                values="
            M1267.36 476.045C1210.74 474.404 1202.74 435.016 1204.79 415.527L1147.35 458.608C1158.98 486.986 1205.82 542.717 1300.18 538.614C1333.01 536.563 1374.65 553.179 1393.52 525.28L1377.11 472.968C1341.83 481.174 1297.79 477.755 1267.36 476.045Z;
            M1267.36 486.045C1210.74 484.404 1202.74 445.016 1204.79 425.527L1147.35 468.608C1158.98 496.986 1205.82 552.717 1300.18 548.614C1333.01 546.563 1374.65 563.179 1393.52 535.28L1377.11 482.968C1341.83 491.174 1297.79 487.755 1267.36 486.045Z;
            M1267.36 476.045C1210.74 474.404 1202.74 435.016 1204.79 415.527L1147.35 458.608C1158.98 486.986 1205.82 542.717 1300.18 538.614C1333.01 536.563 1374.65 553.179 1393.52 525.28L1377.11 472.968C1341.83 481.174 1297.79 477.755 1267.36 476.045Z
            "
                dur="2s"
                keyTimes="0;0.5;1"
                repeatCount="indefinite"
            />
        </path>


        <!-- 左：右カーブ線 -->
        <path d="M1445.84 481.174C1437.29 485.961 1419.99 490.2 1419.17 468.865" stroke="#545352"
            stroke-linecap="round">
            <animate
                attributeName="d"
                values="
                M1445.84 481.174C1437.29 485.961 1419.99 490.2 1419.17 468.865; 
                M1445.84 491.174C1437.29 495.961 1419.99 500.2 1419.17 478.865;
                M1445.84 481.174C1437.29 485.961 1419.99 490.2 1419.17 468.865;
                "
                dur="2s"
                keyTimes="0;0.5;1"
                repeatCount="indefinite" />
        </path>


        <path
            d="M1604.89 424.423V426.923L1602.5 430.999L1600.39 431.923L1598.89 430.923L1604.89 424.423Z"
            fill="white" />
        <path d="M1617.5 406.5L1619.39 407.923L1617 412L1614.89 412.923L1615.5 411.5L1617.5 406.5Z"
            fill="white" />


        <path
            d="M1113.33 842.118C1111.75 832.742 1117.58 816.424 1120.69 809.437L1167.03 819.873C1195.12 826.201 1200.17 850.23 1199.18 861.453C1180.91 860.62 1134.33 848.216 1113.33 842.118Z"
            fill="#1E1E1E" stroke="#1E1E1E" stroke-width="3" />
        <path
            d="M1116 813C1138.4 743 1125.33 607.667 1116 550H1273L1280 573C1301.2 615.4 1295.17 761.333 1289.5 829H1230C1230.8 680.2 1199.33 596.333 1183.5 573C1207.1 617.4 1196.67 760.5 1188.5 826.5L1116 813Z"
            fill="#294174" stroke="#294174" stroke-width="3" />
        <path
            d="M1234.5 865C1230.9 856.2 1233 839 1234.5 831.5H1282C1310.8 831.5 1321 853.833 1322.5 865C1304.5 868.2 1256.33 866.333 1234.5 865Z"
            fill="#1E1E1E" stroke="#1E1E1E" stroke-width="3" />
        <path
            d="M1633 865C1636.6 856.2 1634.5 839 1633 831.5H1585.5C1556.7 831.5 1546.5 853.833 1545 865C1563 868.2 1611.17 866.333 1633 865Z"
            fill="#1E1E1E" stroke="#1E1E1E" stroke-width="3" />
        <path d="M1150.5 563.5C1165.83 597.333 1175.4 703.6 1157 800" stroke="#233661"
            stroke-width="3" />
        <path d="M1250.72 571.697C1267.78 609.057 1275.45 709.895 1262.03 819.175" stroke="#233661"
            stroke-width="3" />
        <path d="M1724.19 563C1708.85 596.833 1699.29 703.1 1717.69 799.5" stroke="#233661"
            stroke-width="3" />
        <path d="M1623.97 571.197C1606.91 608.557 1599.23 709.395 1612.66 818.675" stroke="#233661"
            stroke-width="3" />
        <path
            d="M1226 369C1233.83 393.5 1254.6 419.5 1275 445.5C1269.83 413.167 1257.2 382.6 1226 369Z"
            fill="white" stroke="white" stroke-linecap="round" />
        <path
            d="M1233.41 385.305C1232.21 383.705 1233.91 378.638 1234.91 376.305C1236.41 374.805 1243.41 379.305 1244.41 379.805C1245.12 380.156 1243.55 384.652 1242.37 387.66C1250.18 395.153 1262.48 407.149 1263.91 409.305C1265.51 411.705 1268.25 427.305 1269.41 434.805C1263.75 428.638 1252.11 415.905 1250.91 414.305C1249.85 412.882 1244.49 398.184 1241.08 388.615C1238.56 388.004 1234.48 386.734 1233.41 385.305Z"
            fill="#294174" />
        <path
            d="M1234.91 376.305C1233.91 378.638 1232.21 383.705 1233.41 385.305C1234.61 386.905 1239.58 388.305 1241.91 388.805C1243.08 385.971 1245.21 380.205 1244.41 379.805C1243.41 379.305 1236.41 374.805 1234.91 376.305ZM1239.91 385.305C1243.08 394.305 1249.71 412.705 1250.91 414.305C1252.11 415.905 1263.75 428.638 1269.41 434.805C1268.25 427.305 1265.51 411.705 1263.91 409.305C1262.31 406.905 1247.25 392.305 1239.91 385.305Z"
            stroke="#294174" stroke-linecap="round" />
        <path
            d="M1642 366C1634.01 390.98 1612.82 417.49 1592 444C1597.27 411.033 1610.16 379.867 1642 366Z"
            fill="white" stroke="white" stroke-linecap="round" />
        <path
            d="M1631.5 384.5C1632.7 382.9 1631 377.833 1630 375.5C1628.5 374 1621.5 378.5 1620.5 379C1619.8 379.352 1621.36 383.848 1622.54 386.855C1614.74 394.348 1602.44 406.345 1601 408.5C1599.4 410.9 1596.67 426.5 1595.5 434C1601.17 427.833 1612.8 415.1 1614 413.5C1615.07 412.078 1620.43 397.379 1623.83 387.81C1626.35 387.199 1630.43 385.929 1631.5 384.5Z"
            fill="#294174" />
        <path
            d="M1630 375.5C1631 377.833 1632.7 382.9 1631.5 384.5C1630.3 386.1 1625.33 387.5 1623 388C1621.83 385.167 1619.7 379.4 1620.5 379C1621.5 378.5 1628.5 374 1630 375.5ZM1625 384.5C1621.83 393.5 1615.2 411.9 1614 413.5C1612.8 415.1 1601.17 427.833 1595.5 434C1596.67 426.5 1599.4 410.9 1601 408.5C1602.6 406.1 1617.67 391.5 1625 384.5Z"
            stroke="#294174" stroke-linecap="round" />
        <path d="M1615.5 395L1616 407.5L1601 411.5V430.5" stroke="#486AB2" stroke-width="3" />
        <path
            d="M1183 280C1199 268 1231.67 275 1246 280C1290 235.5 1226 205.5 1202 205C1182.8 204.6 1195.67 221.5 1204.5 230C1185.3 220.4 1160.17 235.667 1150 244.5C1131.2 262.1 1147.5 288.167 1158 299C1163.2 278.6 1176.83 277.833 1183 280Z"
            fill="#545352" stroke="#545352" stroke-width="3" />

        <rect x="1858" y="26" width="8" height="100" fill="#1A67CA" />
        <path d="M1866.86 85L1896 55.4348L1866.86 25.8696V85Z" fill="#FF8082" />


        <circle cx="1488.5" cy="663.5" r="37.5" fill="#1A67CA" />
        <path
            d="M1470.19 684.611H1506.13C1506.64 672.504 1505.71 656.123 1498.34 662.27C1490.96 668.418 1482.49 666.113 1476.34 662.27C1470.19 658.427 1468.19 682.976 1470.19 684.611Z"
            fill="#328BFF" stroke="#328BFF" stroke-linecap="round" />
        <circle cx="1487.89" cy="651.82" r="12.2951" fill="#328BFF" />
    </g>
    <defs>
        <clipPath id="clip0_2923_39">
            <rect width="1920" height="1080" fill="white" />
        </clipPath>
    </defs>
</svg>